<svg width="1800" height="1050" viewBox="0 0 1800 1050" fill="none" xmlns="http://www.w3.org/2000/svg">
  <defs>
    <linearGradient id="sky" x1="0" y1="0" x2="0" y2="1">
      <stop offset="0" stop-color="#F5F5F3"/>
      <stop offset="0.55" stop-color="#E7E7E2"/>
      <stop offset="1" stop-color="#CFCFC8"/>
    </linearGradient>
    <linearGradient id="dark" x1="0" y1="0" x2="1" y2="1">
      <stop offset="0" stop-color="#111111" stop-opacity="0.88"/>
      <stop offset="1" stop-color="#2F2F34" stop-opacity="0.74"/>
    </linearGradient>
    <pattern id="grid" width="58" height="58" patternUnits="userSpaceOnUse">
      <path d="M58 0H0V58" stroke="#FFFFFF" stroke-opacity="0.12" stroke-width="1"/>
    </pattern>
  </defs>
  <rect width="1800" height="1050" fill="url(#sky)"/>
  <rect width="1800" height="1050" fill="url(#grid)" opacity=".7"/>
  <path d="M0 710 C250 610 530 650 760 600 C1050 535 1300 450 1800 520 V1050 H0 V710Z" fill="#B9B9B0"/>
  <path d="M0 804 C350 710 610 750 905 680 C1190 613 1430 550 1800 600 V1050 H0 V804Z" fill="#9D9D96"/>
  <path d="M800 410 L1050 410 L1800 1050 H1250 L800 410Z" fill="#27272C"/>
  <path d="M740 410 L820 410 L550 1050 H260 L740 410Z" fill="#1A1A1E"/>
  <path d="M875 410 L916 410 L1400 1050 H1290 L875 410Z" fill="#F4C21B" opacity=".92"/>
  <path d="M756 410 L796 410 L430 1050 H310 L756 410Z" fill="#F4C21B" opacity=".92"/>
  <g stroke="#F5F5F3" stroke-width="16" stroke-linecap="square" opacity=".98">
    <path d="M715 465 H1010"/><path d="M682 520 H1078"/><path d="M642 590 H1175"/><path d="M590 680 H1310"/><path d="M515 810 H1515"/><path d="M420 980 H1780"/>
  </g>
  <g opacity=".5" stroke="#111111" stroke-width="7">
    <path d="M1210 280 L1580 280 L1700 430 L1325 430 Z" fill="#57575A"/>
    <path d="M1230 430 V645"/><path d="M1680 430 V725"/><path d="M1325 430 V680"/>
  </g>
  <rect x="0" y="0" width="1800" height="1050" fill="url(#dark)"/>
  <rect x="94" y="112" width="18" height="265" fill="#F4C21B" opacity=".9"/>
  <rect x="123" y="112" width="5" height="265" fill="#F4C21B" opacity=".45"/>
  <rect x="1500" y="130" width="190" height="16" fill="#F4C21B" opacity=".78"/>
  <rect x="1500" y="160" width="120" height="6" fill="#F4C21B" opacity=".55"/>
</svg>
