<svg xmlns="http://www.w3.org/2000/svg" xmlns:xlink="http://www.w3.org/1999/xlink" viewBox="0 0 1920 1080" preserveAspectRatio="xMidYMid slice">
  <defs>
    <linearGradient id="sky" x1="0" y1="0" x2="0" y2="1">
      <stop offset="0" stop-color="#0b0f16"/>
      <stop offset="0.55" stop-color="#141a24"/>
      <stop offset="0.82" stop-color="#2a2419"/>
      <stop offset="1" stop-color="#1a150c"/>
    </linearGradient>
    <radialGradient id="glow" cx="0.68" cy="0.6" r="0.55">
      <stop offset="0" stop-color="#f3c229" stop-opacity="0.32"/>
      <stop offset="0.45" stop-color="#f3c229" stop-opacity="0.10"/>
      <stop offset="1" stop-color="#f3c229" stop-opacity="0"/>
    </radialGradient>
    <linearGradient id="ground" x1="0" y1="0" x2="0" y2="1">
      <stop offset="0" stop-color="#191612"/>
      <stop offset="1" stop-color="#0b0906"/>
    </linearGradient>
    <linearGradient id="beam" x1="0" y1="0" x2="1" y2="0">
      <stop offset="0" stop-color="#f3c229" stop-opacity="0.35"/>
      <stop offset="1" stop-color="#f3c229" stop-opacity="0"/>
    </linearGradient>
    <radialGradient id="vignette" cx="0.5" cy="0.5" r="0.75">
      <stop offset="0.6" stop-color="#000000" stop-opacity="0"/>
      <stop offset="1" stop-color="#000000" stop-opacity="0.55"/>
    </radialGradient>
    <g id="pine" fill="#10151d">
      <polygon points="0,-88 20,-52 12,-52 30,-18 18,-18 36,14 -36,14 -18,-18 -30,-18 -12,-52 -20,-52"/>
      <rect x="-4" y="10" width="8" height="18"/>
    </g>
    <g id="logwagon">
      <rect x="0" y="40" width="200" height="18" rx="4" fill="#23272e"/>
      <rect x="8" y="0" width="7" height="44" fill="#2c313a"/>
      <rect x="62" y="0" width="7" height="44" fill="#2c313a"/>
      <rect x="130" y="0" width="7" height="44" fill="#2c313a"/>
      <rect x="185" y="0" width="7" height="44" fill="#2c313a"/>
      <g fill="#332a20" stroke="#15120e" stroke-width="1">
        <circle cx="30" cy="30" r="13"/>
        <circle cx="57" cy="30" r="13"/>
        <circle cx="84" cy="30" r="13"/>
        <circle cx="111" cy="30" r="13"/>
        <circle cx="138" cy="30" r="13"/>
        <circle cx="165" cy="30" r="13"/>
        <circle cx="44" cy="8" r="13"/>
        <circle cx="71" cy="8" r="13"/>
        <circle cx="98" cy="8" r="13"/>
        <circle cx="125" cy="8" r="13"/>
        <circle cx="152" cy="8" r="13"/>
      </g>
      <g fill="#8a6f4d" opacity="0.85">
        <circle cx="57" cy="30" r="5"/>
        <circle cx="111" cy="30" r="5"/>
        <circle cx="165" cy="30" r="5"/>
        <circle cx="71" cy="8" r="5"/>
        <circle cx="125" cy="8" r="5"/>
      </g>
      <circle cx="45" cy="70" r="12" fill="#0d1014" stroke="#3a3f47" stroke-width="3"/>
      <circle cx="155" cy="70" r="12" fill="#0d1014" stroke="#3a3f47" stroke-width="3"/>
    </g>
  </defs>

  <rect width="1920" height="1080" fill="url(#sky)"/>
  <rect width="1920" height="1080" fill="url(#glow)"/>

  <circle cx="300" cy="170" r="40" fill="#dfe4ee" opacity="0.16"/>
  <circle cx="300" cy="170" r="58" fill="#dfe4ee" opacity="0.05"/>
  <g fill="#cfd6e4">
    <circle cx="150" cy="90" r="2" opacity="0.5"/>
    <circle cx="480" cy="120" r="1.6" opacity="0.4"/>
    <circle cx="620" cy="60" r="2.2" opacity="0.55"/>
    <circle cx="820" cy="150" r="1.5" opacity="0.35"/>
    <circle cx="1010" cy="80" r="2" opacity="0.5"/>
    <circle cx="1220" cy="130" r="1.6" opacity="0.4"/>
    <circle cx="1420" cy="70" r="2.2" opacity="0.5"/>
    <circle cx="1650" cy="150" r="1.5" opacity="0.4"/>
    <circle cx="1780" cy="90" r="2" opacity="0.5"/>
    <circle cx="920" cy="230" r="1.4" opacity="0.3"/>
    <circle cx="1560" cy="250" r="1.4" opacity="0.3"/>
  </g>

  <path d="M0,608 Q380,572 760,602 T1520,588 T1920,600 L1920,662 L0,662 Z" fill="#0e1218" opacity="0.85"/>

  <g>
    <use xlink:href="#pine" href="#pine" x="70" y="650" transform="scale(1)"/>
    <use xlink:href="#pine" href="#pine" x="150" y="652" transform="translate(0,0) scale(1)"/>
    <use xlink:href="#pine" href="#pine" x="235" y="648"/>
    <use xlink:href="#pine" href="#pine" x="320" y="652"/>
    <use xlink:href="#pine" href="#pine" x="410" y="650"/>
    <use xlink:href="#pine" href="#pine" x="500" y="653"/>
    <use xlink:href="#pine" href="#pine" x="590" y="649"/>
    <use xlink:href="#pine" href="#pine" x="680" y="652"/>
    <use xlink:href="#pine" href="#pine" x="770" y="650"/>
    <use xlink:href="#pine" href="#pine" x="860" y="653"/>
    <use xlink:href="#pine" href="#pine" x="950" y="650"/>
    <use xlink:href="#pine" href="#pine" x="1040" y="652"/>
  </g>
  <g transform="translate(1400,660) scale(0.55)" opacity="0.9">
    <use xlink:href="#pine" href="#pine" x="0" y="0"/>
    <use xlink:href="#pine" href="#pine" x="150" y="4"/>
    <use xlink:href="#pine" href="#pine" x="300" y="0"/>
    <use xlink:href="#pine" href="#pine" x="450" y="6"/>
    <use xlink:href="#pine" href="#pine" x="600" y="0"/>
    <use xlink:href="#pine" href="#pine" x="750" y="4"/>
  </g>

  <rect x="0" y="656" width="1920" height="424" fill="url(#ground)"/>

  <ellipse cx="1200" cy="728" rx="720" ry="12" fill="#000000" opacity="0.35"/>
  <rect x="480" y="720" width="1440" height="4" fill="#454b54"/>
  <line x1="480" y1="731" x2="1920" y2="731" stroke="#2a2e35" stroke-width="7" stroke-dasharray="14 34" opacity="0.6"/>

  <rect x="470" y="560" width="7" height="162" fill="#2a2e35"/>
  <rect x="452" y="538" width="42" height="64" rx="8" fill="#171a20" stroke="#2a2e35" stroke-width="2"/>
  <circle cx="473" cy="558" r="16" fill="#f3c229" opacity="0.28"/>
  <circle cx="473" cy="558" r="8" fill="#f3c229"/>
  <circle cx="473" cy="584" r="8" fill="#3a3f47"/>

  <g transform="translate(628,640)"><use xlink:href="#logwagon" href="#logwagon"/></g>
  <g transform="translate(846,640)"><use xlink:href="#logwagon" href="#logwagon"/></g>
  <g transform="translate(1064,640)"><use xlink:href="#logwagon" href="#logwagon"/></g>
  <g transform="translate(1282,640)"><use xlink:href="#logwagon" href="#logwagon"/></g>
  <rect x="828" y="690" width="18" height="6" fill="#2c313a"/>
  <rect x="1046" y="690" width="18" height="6" fill="#2c313a"/>
  <rect x="1264" y="690" width="18" height="6" fill="#2c313a"/>
  <rect x="1482" y="690" width="18" height="6" fill="#2c313a"/>

  <polygon points="1754,676 1920,636 1920,732 1754,694" fill="url(#beam)" opacity="0.6"/>
  <rect x="1704" y="610" width="14" height="14" rx="3" fill="#23272e"/>
  <rect x="1500" y="622" width="228" height="10" rx="5" fill="#1b1f25"/>
  <rect x="1500" y="630" width="228" height="62" rx="10" fill="#23272e"/>
  <rect x="1728" y="640" width="26" height="52" rx="8" fill="#23272e"/>
  <rect x="1668" y="640" width="44" height="18" rx="4" fill="#f3c229" opacity="0.9"/>
  <rect x="1500" y="670" width="252" height="9" fill="#f3c229"/>
  <text x="1552" y="662" font-family="Arial, Helvetica, sans-serif" font-weight="900" font-size="26" fill="#f3c229" letter-spacing="4">EPYA</text>
  <circle cx="1752" cy="684" r="5" fill="#ffdc68"/>
  <circle cx="1530" cy="710" r="13" fill="#0d1014" stroke="#3a3f47" stroke-width="3"/>
  <circle cx="1568" cy="710" r="13" fill="#0d1014" stroke="#3a3f47" stroke-width="3"/>
  <circle cx="1652" cy="710" r="13" fill="#0d1014" stroke="#3a3f47" stroke-width="3"/>
  <circle cx="1690" cy="710" r="13" fill="#0d1014" stroke="#3a3f47" stroke-width="3"/>

  <polygon points="0,850 0,824 640,1080 560,1080" fill="#363b43" opacity="0.55"/>
  <polygon points="0,1006 0,984 260,1080 190,1080" fill="#363b43" opacity="0.55"/>

  <rect width="1920" height="1080" fill="url(#vignette)"/>
</svg>
