<svg width="900" height="620" viewBox="0 0 900 620" fill="none" xmlns="http://www.w3.org/2000/svg">
  <defs>
    <linearGradient id="g" x1="0" y1="0" x2="1" y2="1"><stop stop-color="#E8E8E4"/><stop offset="1" stop-color="#B8B8B0"/></linearGradient>
    <pattern id="p" width="42" height="42" patternUnits="userSpaceOnUse"><path d="M42 0H0V42" stroke="#fff" stroke-opacity=".35"/></pattern>
  </defs>
  <rect width="900" height="620" fill="url(#g)"/>
  <rect width="900" height="620" fill="url(#p)"/>
  <path d="M0 443 C160 394 246 440 401 377 C550 317 675 304 900 331 V620 H0V443Z" fill="#85857F"/>
  <path d="M20 336 H880" stroke="#111111" stroke-width="30"/>
  <path d="M80 336 V605 M235 336 V605 M390 336 V605 M545 336 V605 M700 336 V605 M855 336 V605" stroke="#2F2F34" stroke-width="22"/>
  <path d="M58 311 H842" stroke="#F4C21B" stroke-width="12"/>
  <g stroke="#2F2F34" stroke-width="7" opacity=".82"><path d="M95 336 L190 605"/><path d="M220 336 L125 605"/><path d="M250 336 L345 605"/><path d="M375 336 L280 605"/><path d="M405 336 L500 605"/><path d="M530 336 L435 605"/><path d="M560 336 L655 605"/><path d="M685 336 L590 605"/><path d="M715 336 L810 605"/><path d="M840 336 L745 605"/></g>
  <rect x="68" y="120" width="170" height="14" fill="#F4C21B"/><rect x="68" y="148" width="90" height="8" fill="#111111" opacity=".4"/>
</svg>
