<svg width="900" height="620" viewBox="0 0 900 620" fill="none" xmlns="http://www.w3.org/2000/svg">
  <defs><linearGradient id="g" x1="0" y1="0" x2="1" y2="1"><stop stop-color="#F5F5F3"/><stop offset="1" stop-color="#D2D2CC"/></linearGradient></defs>
  <rect width="900" height="620" fill="url(#g)"/>
  <rect x="72" y="120" width="260" height="170" rx="8" fill="#111111" opacity=".88"/>
  <rect x="108" y="155" width="70" height="52" rx="4" fill="#F4C21B"/><rect x="192" y="155" width="95" height="52" rx="4" fill="#4A4A50"/>
  <circle cx="135" cy="310" r="34" fill="#2F2F34"/><circle cx="270" cy="310" r="34" fill="#2F2F34"/>
  <path d="M390 226 h210 l74 88 h-360 l76-88Z" fill="#2F2F34"/>
  <path d="M420 252 h80 v42 h-116 l36-42Z" fill="#F4C21B"/><path d="M525 252 h76 l35 42H525v-42Z" fill="#66666A"/>
  <circle cx="420" cy="330" r="40" fill="#111111"/><circle cx="620" cy="330" r="40" fill="#111111"/>
  <path d="M10 472 H850" stroke="#111111" stroke-width="22"/><path d="M60 518 H895" stroke="#F4C21B" stroke-width="18"/>
  <g stroke="#4A4A50" stroke-width="10"><path d="M80 448 L130 542"/><path d="M205 448 L255 542"/><path d="M330 448 L380 542"/><path d="M455 448 L505 542"/><path d="M580 448 L630 542"/><path d="M705 448 L755 542"/><path d="M830 448 L880 542"/></g>
  <rect x="686" y="126" width="130" height="14" fill="#F4C21B"/><rect x="686" y="153" width="76" height="8" fill="#111111" opacity=".4"/>
</svg>
